<?xml version="1.0" encoding="UTF-8"?>
<svg width="69px" height="67px" viewBox="0 0 69 67" version="1.1" xmlns="http://www.w3.org/2000/svg" xmlns:xlink="http://www.w3.org/1999/xlink">
    <!-- Generator: Sketch 48.2 (47327) - http://www.bohemiancoding.com/sketch -->
    <title>Confluence-blue</title>
    <desc>Created with Sketch.</desc>
    <defs>
        <linearGradient x1="99.140087%" y1="112.708084%" x2="33.8589812%" y2="37.7549606%" id="linearGradient-1">
            <stop stop-color="#0052CC" offset="18%"></stop>
            <stop stop-color="#2684FF" offset="100%"></stop>
        </linearGradient>
        <linearGradient x1="7053.82653%" y1="-161634%" x2="6067.18134%" y2="-163895%" id="linearGradient-2">
            <stop stop-color="#0052CC" offset="18%"></stop>
            <stop stop-color="#2684FF" offset="100%"></stop>
        </linearGradient>
    </defs>
    <g id="Desktop-Copy" stroke="none" stroke-width="1" fill="none" fill-rule="evenodd" transform="translate(-935.000000, -1055.000000)">
        <g id="Group" transform="translate(605.000000, 1050.000000)" fill-rule="nonzero">
            <g id="Confluence-blue" transform="translate(330.000000, 5.000000)">
                <path d="M2.5328125,50.8921875 C1.821875,52.0515625 1.0234375,53.396875 0.3453125,54.46875 C-0.261662021,55.4944613 0.0641861974,56.8173078 1.078125,57.44375 L15.296875,66.19375 C15.7959824,66.5019074 16.3979397,66.5967056 16.9675999,66.4568613 C17.53726,66.3170169 18.0268903,65.9542477 18.3265625,65.45 C18.8953125,64.4984375 19.628125,63.2625 20.4265625,61.9390625 C26.059375,52.6421875 31.725,53.7796875 41.940625,58.6578125 L56.0390625,65.3625 C56.5730203,65.6166487 57.1871269,65.6437868 57.7414218,65.4377292 C58.2957166,65.2316717 58.7429705,64.8099757 58.98125,64.26875 L65.7515625,48.95625 C66.2298961,47.8626142 65.7431834,46.587427 64.6578125,46.090625 C61.6828125,44.690625 55.765625,41.9015625 50.4390625,39.33125 C31.2765625,30.0234375 14.990625,30.625 2.5328125,50.8921875 Z" id="Shape" fill="url(#linearGradient-1)"></path>
                <path d="M66.2875,16.14375 C66.9984375,14.984375 67.796875,13.6390625 68.475,12.5671875 C69.0819745,11.5414762 68.7561263,10.2186297 67.7421875,9.5921875 L53.5234375,0.8421875 C53.0202577,0.503279924 52.3989317,0.388556543 51.807903,0.525426351 C51.2168743,0.66229616 50.7092288,1.03846556 50.40625,1.5640625 C49.8375,2.515625 49.1046875,3.7515625 48.30625,5.075 C42.6734375,14.371875 37.0078125,13.234375 26.7921875,8.35625 L12.7375,1.684375 C12.2035422,1.43022632 11.5894356,1.40308824 11.0351407,1.6091458 C10.4808459,1.81520335 10.033592,2.23689925 9.7953125,2.778125 L3.025,18.090625 C2.5466664,19.1842608 3.03337907,20.459448 4.11875,20.95625 C7.09375,22.35625 13.0109375,25.1453125 18.3375,27.715625 C37.54375,37.0125 53.8296875,36.3890625 66.2875,16.14375 Z" id="Shape" fill="url(#linearGradient-2)"></path>
            </g>
        </g>
    </g>
</svg>