<?xml version="1.0" encoding="UTF-8"?>
<svg width="70px" height="69px" viewBox="0 0 70 69" version="1.1" xmlns="http://www.w3.org/2000/svg" xmlns:xlink="http://www.w3.org/1999/xlink">
    <!-- Generator: Sketch 48.2 (47327) - http://www.bohemiancoding.com/sketch -->
    <title>slack</title>
    <desc>Created with Sketch.</desc>
    <defs></defs>
    <g id="Desktop-Copy" stroke="none" stroke-width="1" fill="none" fill-rule="evenodd" transform="translate(-825.000000, -1054.000000)">
        <g id="Group" transform="translate(605.000000, 1050.000000)" fill-rule="nonzero">
            <g id="slack" transform="translate(220.000000, 4.000000)">
                <path d="M5.85151298,35.4319147 C3.28642149,35.4512769 1.11351727,33.9419415 0.312334706,31.586198 C0.282612832,31.4972301 0.254903828,31.4076189 0.229228356,31.3174312 C-0.643855205,28.3006043 1.0490865,25.1445534 4.08340204,24.134027 L52.7519745,8.03429507 C53.3298482,7.86922526 53.927875,7.78298592 54.5294232,7.77797543 C57.1626806,7.75769114 59.3953466,9.30021907 60.2161386,11.7057513 L60.2889733,11.9380986 C61.1994081,15.0803193 58.9373279,17.8850831 56.2270338,18.7840459 C56.2251662,18.785429 55.7321308,18.9500083 7.82832356,35.0995289 C7.19159228,35.3138524 6.52419869,35.4260695 5.85151298,35.4319147 Z" id="Shape" fill="#70CADB"></path>
                <path d="M14.5857993,60.492884 C11.9708655,60.5117463 9.76538578,58.9895612 8.96442357,56.6143299 C8.93401961,56.5239743 8.90567636,56.4329403 8.87941579,56.3412986 C7.98400049,53.2186499 9.69454597,49.9564204 12.774189,48.9213533 L62.0050291,32.3022793 C62.6411707,32.0900788 63.2980919,31.9816207 63.9587913,31.9754905 C66.5808091,31.9556851 68.88452,33.5552056 69.6972888,35.9573156 L69.7728513,36.2072406 C70.2484226,37.8675919 69.9674247,39.7335419 69.0219492,41.2062136 C68.3173292,42.3011683 66.0948479,43.2650303 66.0948479,43.2650303 L16.6769907,60.1368587 C16.0030063,60.3646837 15.2973046,60.4851477 14.5857993,60.4938272 L14.5857993,60.492884 Z" id="Shape" fill="#E01765"></path>
                <path d="M55.3749771,60.493548 C52.7571315,60.5185148 50.4206983,58.8668735 49.5872346,56.4021517 L33.1567521,7.93202774 L33.0745761,7.65998717 C32.1843358,4.56904352 33.8963364,1.3448938 36.9647136,0.317706157 C37.5786724,0.112737664 38.2134114,0.00579757972 38.8524009,0.000169154261 C39.8016756,-0.00686637757 40.7202525,0.205606684 41.5854621,0.630083771 C43.0249342,1.33706321 44.1211232,2.58492012 44.6311701,4.09719386 L61.0602358,52.5630965 L61.1079357,52.7188163 C62.030763,55.9279568 60.3225406,59.1539827 57.2541634,60.1811703 C56.6480744,60.3822667 56.0139681,60.4876744 55.3749771,60.493548 Z" id="Shape" fill="#E8A723"></path>
                <path d="M31.1625696,68.2713301 C28.5448457,68.2961119 26.2087642,66.6429136 25.3760725,64.1763413 L8.96007271,15.7044326 C8.44635478,14.1941395 8.55826751,12.5427847 9.27112717,11.1145949 C9.98398683,9.6864051 11.2392304,8.59870929 12.7599984,8.09141218 C13.366608,7.88988005 14.0012689,7.78414887 14.6408459,7.77807283 C17.2575008,7.75239945 19.593126,9.40435383 20.4259271,11.8697781 L36.8423988,60.3435631 C37.3563629,61.8545861 37.2440826,63.5067739 36.530345,64.93539 C35.8166073,66.3640062 34.5601058,67.4515698 33.0382254,67.9579907 C32.4327945,68.1596296 31.7991789,68.2652141 31.1606817,68.270861 L31.1625696,68.270861 L31.1625696,68.2713301 Z" id="Shape" fill="#3EB890"></path>
                <polygon id="Shape" fill="#CC2027" points="46.8389375 49.2592593 57.9012346 45.4327889 54.2849424 34.5679012 43.2098765 38.3542338 46.8389375 49.2592593"></polygon>
                <polygon id="Shape" fill="#361238" points="22.8754452 57.037037 34.5679012 53.2324144 30.7163707 42.345679 19.0123457 46.1122234 22.8754452 57.037037"></polygon>
                <polygon id="Shape" fill="#65863A" points="39.034777 25.0617284 50.1234568 21.2057008 46.541347 10.3703704 35.4320988 14.161223"></polygon>
                <polygon id="Shape" fill="#1A937D" points="15.0841312 32.8395062 26.7901235 29.0194303 22.9622736 18.1481481 11.2345679 21.9031956 15.0841312 32.8395062"></polygon>
            </g>
        </g>
    </g>
</svg>