<svg id="Calque_1" data-name="Calque 1" xmlns="http://www.w3.org/2000/svg" viewBox="0 0 462 598.52"><defs><style>.cls-1{fill:#ffe582;}.cls-2{fill:#e8bc91;}.cls-3{fill:#008061;}.cls-4{fill:#1e4173;}.cls-5{fill:#097;}.cls-6{fill:#ff78a8;}.cls-7{fill:#ff5c96;}.cls-8{fill:#dba878;}.cls-9{fill:#9ea5cc;}.cls-10{fill:#f2b735;}.cls-11{fill:#b57e67;}.cls-12{fill:#fad0ad;}.cls-13{fill:#a6674e;}.cls-14{fill:#87dfff;}.cls-15{fill:#5bc5eb;}.cls-16{fill:#285796;}.cls-17{fill:#703a3a;}.cls-18{fill:#fcb75b;}.cls-19{fill:#c08cde;}.cls-20{fill:#fff;}.cls-21{fill:#b170db;}.cls-22{fill:#ff8269;}</style></defs><title>Hero-Illustration</title><path class="cls-1" d="M423,234.21c-24.22,0-40,13-40,29a23.69,23.69,0,0,0,.86,6.31l-9.18,10.14L390.79,281c6.93,6.81,18.14,11.2,32.21,11.2,24.22,0,40-13,40-29S447.22,234.21,423,234.21Z" transform="translate(-1 -1)"/><polygon class="cls-2" points="300.85 329.97 299.29 354.91 287.82 385.92 277.4 386.71 273.75 389.31 289.91 394 295.64 389.31 314.14 359.6 315.97 332.58 300.85 329.97"/><polygon class="cls-3" points="412.35 383.67 385.85 392.17 369.66 403.91 365.18 413.97 359.85 397.67 338.85 397.67 330.85 411.17 333.43 416.86 289.91 391.92 273.75 389.31 250.81 396.61 237.78 413.29 270.62 423.19 303.98 447.17 348.35 482 367.12 429 396.24 420.07 426.35 407.67 433.85 394.17 412.35 383.67"/><polygon class="cls-3" points="367.03 122.51 372.24 97.49 382.67 91.76 387.88 99.57 395.18 98.53 399.35 116.25 367.68 142 367.03 122.51"/><polygon class="cls-3" points="335.73 218.46 347.01 192.67 369.01 181.33 397.01 188 401.68 195.33 374.35 206 338.01 226.33 335.73 218.46"/><polygon class="cls-3" points="350.35 510.67 379.01 488.67 353.01 490.67 350.35 510.67"/><polygon class="cls-3" points="423.68 520 383.68 507.33 346.35 528.67 337.01 541.33 306.35 506.67 247.01 510.67 243.01 514.67 239.68 536 313.35 549 341.68 579.33 350.35 591.33 381.68 557.33 408.35 576 435.01 578.67 439.68 550 423.68 520"/><polygon class="cls-2" points="342.81 278.11 346.2 267.95 354.02 275.76 347.76 279.94 342.81 278.11"/><polygon class="cls-4" points="345.35 283.42 332.6 272.92 315.35 273.92 304.6 284.17 301.1 302.67 291.35 312.17 295.85 324.67 335.21 330.3 344.07 328.74 348.5 317.27 345.35 283.42"/><path class="cls-4" d="M333.08,328.53c.78,0,12.51-3.65,12.51-3.65l-5,8.34Z" transform="translate(-1 -1)"/><polyline class="cls-5" points="352.46 452.9 353.44 451.07 367.05 425.8 401.45 412.25 430.12 415.9 445.76 436.22 436.38 444.56 405.62 447.69 392.07 441.96 355.58 459.68"/><polygon class="cls-3" points="416.57 428.93 396.76 424.24 369.66 432.05 373.31 436.22 396.24 429.97 416.57 428.93"/><polygon class="cls-2" points="380.08 451.86 384.77 464.89 374.35 470.11 366.53 451.34 380.08 451.86"/><polygon class="cls-2" points="314.7 422.24 317.68 382 302.12 395.04 302.78 418.67 314.7 422.24"/><polygon class="cls-4" points="374 416.07 369.14 383.58 364.97 368.11 328.31 363.46 303.18 363.35 296.93 371.55 301.3 410.87 316.55 412.91 320.14 385.14 342.02 391.07 352.46 423.02 369.66 461.77 384.77 457.6 374 416.07"/><polygon class="cls-2" points="286.26 389.83 282.61 395.05 287.3 396.61 295.64 389.31 286.26 389.83"/><polygon class="cls-6" points="339.43 302.87 327.9 302.92 305.6 314.67 299.35 319.67 298.77 343.96 312.32 345.01 321.88 356.3 319.62 363.77 338.9 375.24 364.97 368.11 358.71 343.79 348.98 306.35 339.43 302.87"/><path class="cls-5" d="M349.29,330.45c0-1.56,3.13-10.42,3.13-10.42l32.32,2.61-.52,7.82L351.37,341.4Z" transform="translate(-1 -1)"/><polygon class="cls-5" points="360.27 316.42 377.01 299.33 406.72 297.77 425.68 308 424.35 320.67 406.67 322.68 383.21 329.45 360.27 316.42"/><polygon class="cls-3" points="398.33 308.08 384.25 309.13 350.37 324.24 350.89 331.02 386.34 313.82 398.33 308.08"/><polygon class="cls-7" points="348.03 336.75 333.17 341.7 342.81 342.75 348.03 336.75"/><polygon class="cls-8" points="347.59 306.35 344.81 316.77 351.15 324.76 366.01 326.06 372.26 312.77 362.36 307.56 347.59 306.35"/><polygon class="cls-7" points="309.19 329.45 308.35 344.42 312.32 345.01 309.19 329.45"/><polygon class="cls-2" points="339.1 303.92 328.6 280.92 314.98 279.46 307.6 288.17 309.01 292 308.36 300.02 314.81 302.92 313.77 309.13 305.6 314.67 313.35 328.17 328.85 330.67 340.6 320.17 339.1 303.92"/><circle class="cls-4" cx="320.6" cy="286.42" r="2.27" transform="translate(-109.28 315.06) rotate(-45.73)"/><polygon class="cls-4" points="314.98 279.46 326.6 280.17 330.6 290.67 330.35 312.67 340.1 322.67 350.85 317.42 357.6 305.92 349.35 285.67 334.68 277.67 321.98 274.78 314.98 279.46"/><path class="cls-5" d="M452.68,531l-46-21.33-35.33,16L347,561.87l-1.2-6,10.1-60.61,42.36-6.45,25,11.47,37.53-3.13L453,478.4l-26.58-11.47-33.88.52-29.71,9.38-4.28,2.62,3.12-26.79-2.09,1.6,4.85-33.17-5.37-42,17.77-12.4,24.5-3,3-8.5-13.5-9-22,9.5-10.91,14.47-3.45-27L350,255.26l-.79-3.2,2.95-10.66,6.18-2.79,1.89,2.56-3.1,2.73-.39,8.26,6.52,2.9,6.11-6.79-4.91-6.65,5.43-4.78-2.07-2.35-5.23,4.6-3.23-4.37-9.82,4.43-1.85,6.69-3.87-15.78,18.2-12.4,10,2,15.33,8L410,224.33l-3.33-16.67-20.29-10.21-23.65,5.29-20.24,22-.6-2.44,11.45-40.5,26.14-10.62s5.88,5.63,7.64,6.34,17.64,2.11,17.64,2.11l2.35-14.09L393.6,154.26l-18.82,1.41s-10.71,8.84-16.47,13.33l8.35-17.7L401.39,136l11.47-13.55-6.78-8.34-19.29,2.09-16.12,20.12,1.33-16L366,107H355.35l-1.91,20.16,7.41,21.8-11.77,25-7.44,26.34L330.42,183.9l-26.58-5.73-19.3,12.11,13.3,12.18,22.88,3.22,13.24,19.18,7.76,31.62,4.46,87.22L356,421l-5.89,40.31-16-24.63-43.8-21.59-41.84.9-18.19,14.67s-4.32,22-2.29,22.45l39.19,8.65L305,448.17l18.37,1.5,25.93,22-7.61,45.68L304,482.33,260,479l-26.67,18-4,22,32,3.33L300.68,511l39.46,15.54-3.93,23.55-28.53-24.77-52,6.67-9.33,16L273,558l41.33-8,21.44,13.89,7.12,35.62,11.22-2-5-25L382,547l43.33,15.33L462.68,555ZM365.33,248.07l-2.89,3.21-2.48-1.1.23-4.8,1.91-1.68Z" transform="translate(-1 -1)"/><polygon class="cls-2" points="354.54 283.45 354.02 275.76 341.25 272.38 338.12 278.11 339.95 285.67 347.19 288.01 358.71 318.51 366.01 326.06 374.85 323.17 374.87 310.95 354.54 283.45"/><polygon class="cls-8" points="307.6 288.17 312.6 291.42 309.01 292 307.6 288.17"/><polygon class="cls-3" points="348.27 182.97 342.57 160.1 329.9 146.77 330.57 135.44 345.24 135.44 357.9 156.77 348.27 182.97"/><polygon class="cls-3" points="339.67 202.68 324.5 189.41 308.03 186.46 323.07 194.78 337.17 211.51 339.67 202.68"/><polygon class="cls-3" points="354.77 203.4 373.73 205.92 395.1 214.26 380.51 202.27 363.31 197.06 354.77 203.4"/><polygon class="cls-3" points="373.79 154.67 392.05 162.99 383.36 154.31 373.79 154.67"/><polygon class="cls-9" points="384.77 464.89 386.86 472.19 361.84 475.84 363.92 468.54 372.79 464.89 384.77 464.89"/><path class="cls-3" d="M309.55,427.35l-19.9-1.73-30.06,10.44s17.85-13.14,19.49-13.31,24.7-3.09,24.7-3.09Z" transform="translate(-1 -1)"/><polygon class="cls-9" points="312.88 428.62 314.7 422.24 302.04 414.77 291.69 415.69 287.4 420.62 312.88 428.62"/><polygon class="cls-3" points="263.01 497.33 281.68 491.33 304.35 495.33 263.01 497.33"/><path class="cls-3" d="M371.35,525.67,396.68,527s32,12.67,31.33,10.67-26.67-16-26.67-16l-22-2Z" transform="translate(-1 -1)"/><path class="cls-10" d="M431.4,250a1.8,1.8,0,1,0,0,3.6h3.73l-9.8,8.4h-9.05l-11.92,11.29a1.8,1.8,0,0,0,2.48,2.61l10.88-10.31h8.95l11.93-10.23v5.43a1.8,1.8,0,0,0,3.6,0V250Z" transform="translate(-1 -1)"/><polygon class="cls-3" points="104.35 107.17 116.85 100.17 131.85 99.17 150.35 116.67 148.55 131.81 160.02 117.57 174.61 122.78 176 132.51 151.33 144.67 104.35 107.17"/><polygon class="cls-3" points="168.18 76.94 172.68 61.33 193.68 47.33 211.97 50.53 210.92 62.35 168.18 76.94"/><polygon class="cls-3" points="168.27 22.59 159.68 14.33 160.97 2.08 170.71 7.3 168.27 22.59"/><path class="cls-1" d="M279,26.21c-27.25,0-45,13-45,29,0,7.33,3.72,14,10.36,19.12L240,89l19.54-7.33A71.15,71.15,0,0,0,279,84.21c1.05,0,2.09,0,3.11-.06,6-9.79,18-16,32.89-16,1.56,0,3.08.08,4.57.21A22,22,0,0,0,324,55.21C324,39.2,306.25,26.21,279,26.21Z" transform="translate(-1 -1)"/><path class="cls-3" d="M269.44,213.09l-42.59,14.08-13.18,16.36V223l-12.51-19.81-36-10.95-9.38,4.69s2.08,10.42,2.08,13L179.78,236,198,273l4.6-2.56-5.13,9.68,89.13-34.75,7.3-18.76Z" transform="translate(-1 -1)"/><polygon class="cls-11" points="166.27 164.65 159.76 160.22 157.15 161 164.97 169.6 166.27 164.65"/><polygon class="cls-5" points="204.84 250.14 178.78 235.02 144.9 235.54 125.61 211.57 156.37 203.75 177.74 212.09 196.85 226.16 204.84 250.14"/><polygon class="cls-12" points="195.12 247.53 199.63 239.54 206.58 239.89 205.35 251.33 194.94 255.35 193.38 252.05 195.12 247.53"/><polygon class="cls-3" points="158.45 216.78 174.61 217.3 192.86 228.25 171.49 220.95 158.45 216.78"/><path class="cls-13" d="M228.85,168.92l-9.25,36.25,28,27.25,9.25,3.75-1.22-11.09s-14.89-19.79-14.37-22.13,8.89-43,8.89-43Z" transform="translate(-1 -1)"/><polygon class="cls-11" points="242.7 158.1 229.01 203.67 254.85 229.92 264.61 226.42 255.35 205.67 248.35 201.33 267.83 171.95 263.44 156.1 242.7 158.1"/><polygon class="cls-9" points="222.35 187.67 243.68 183.67 256.68 190.33 267.83 171.95 263.44 156.1 228.1 164.92 222.35 187.67"/><polygon class="cls-11" points="186.4 158.4 161.32 165.7 160.94 172.3 196.1 169.17 207.35 142.33 194.85 131.92 186.4 158.4"/><polygon class="cls-14" points="194.85 131.92 206.68 154 223.68 155.67 226.35 172.17 253.68 165.67 263.44 156.1 249.35 144.92 237.6 125.67 226.6 117.79 212.6 118.29 194.85 131.92"/><path class="cls-15" d="M207.68,155c.42-.08,20.17-6.33,20.17-6.33l-2.5,4,3,5.25Z" transform="translate(-1 -1)"/><polygon class="cls-11" points="221.85 126.42 223.18 150.75 208.81 172.32 215.18 176.75 236.71 155.84 238.29 124.88 234.35 119.42 226.6 117.79 221.85 126.42"/><polygon class="cls-11" points="208.81 172.32 202.53 175.67 197.93 180.47 199.88 182.15 204.92 179.68 205.73 186.93 202.59 190.31 205.09 192.21 213.65 187.9 215.18 176.75 208.81 172.32"/><path class="cls-5" d="M307.49,243.31l-29.71-12-51.6,14.59-23.71,27.74,7.88-27.33-14.24-38.6-39.43-50.16c-1.09-6.57-2.5-15.1-3.6-21.94-.86-5.33-1.54-9.63-1.73-11.16,1.45-3.6,10.81-23,19.16-40.16l18.84-8.11L213,82.11,226.86,80,220.61,62.3l-23.28-4.17-20.1,12.41-1.8-15.22,20.26-18.54,19.11,2.43,3.13-7.3L209.23,21.5l-17.72,2.78-4.6,5.85L174.53,47.76l0-.4-.19-10.95,11-20.81L177.61,1l-9.38,8.69.7,10.42-10.42-9-8.34,2.78,1.74,9.38L168.06,38l.14,8.19-12.14-9L135.22,34l-11.12,6.6,13.55,13.21,17.72-1,14.14,5.7,1.29,11c-5.93,12.1-10.49,21.47-14,28.74l-2.27-9.77-9.22-2.93-3-7.83h-9.93v3.13h7.79l1.34,3.49-.37-.12L135,93l6.72,6.72,6.52-6.52-1.51-3.93,5.14,1.64,2.75,11.82c-9.6,20-9.6,20.77-9.6,21.44,0,.41.28,2.38.73,5.35l-22.62-19.95-21.89-7.64-23.1,6.65-8,15.64,25.19,8,23-1,23.76,10.14-27.31-4-19.11,9.73.16,12.6,21.39,1.3,12.16-9.38,19.73-1.27c.5,3.05,1,6.13,1.51,9.08l.13.79,39.8,50.62,12.71,35.44-8.79,33.12,3,5.49,46.91-22.24L282,273.31l28.15-7.82ZM141.73,95.25l-2.66-2.66,3.29-4.75.56.18,1.68,4.37Z" transform="translate(-1 -1)"/><polygon class="cls-3" points="256.85 240.42 284.07 250.66 275.74 241.28 261.14 235.54 256.85 240.42"/><polygon class="cls-4" points="246.6 231.42 235.35 238.42 234.35 243.42 251.6 240.67 259.45 232.42 254.6 234.17 251.85 231.42 246.6 231.42"/><polygon class="cls-16" points="264.61 226.42 268 232.42 256.35 240.42 244.1 241.67 244.1 237.67 254.85 229.92 264.61 226.42"/><polygon class="cls-11" points="186.45 109.93 189.21 124.26 194.16 124.78 200.1 127.92 211.1 124.78 212.6 118.29 210.85 111.17 194.94 97.93 187.49 103.68 186.45 109.93"/><polygon class="cls-17" points="186.45 109.93 196.76 108.36 199.63 106.53 211.79 115.83 216.68 110.33 215.01 106.67 217.01 102.33 214.68 98.33 209.01 97.67 204.06 90.64 196.5 89.85 194.42 92.98 190.51 91.94 186.45 96.64 186.45 99.51 182.54 102.38 182.8 107.59 186.45 109.93"/><polygon class="cls-17" points="203.33 97.06 201.44 86.92 206.74 82.23 216.42 87.83 216.35 94 208.68 99.33 203.33 97.06"/><circle class="cls-17" cx="197.03" cy="114.61" r="2.27"/><polygon class="cls-13" points="189.21 124.26 195.46 121.39 194.16 124.78 189.21 124.26"/><polygon class="cls-11" points="153.5 168.82 157.93 167.26 162.88 173.25 162.36 177.94 157.15 176.64 153.5 168.82"/><polygon class="cls-12" points="207.28 236.76 203.28 241.28 206.58 250.31 211.79 249.62 211.79 241.97 207.28 236.76"/><path class="cls-10" d="M295.8,46.21H262.2a1.8,1.8,0,1,1,0-3.6h33.6a1.8,1.8,0,1,1,0,3.6Z" transform="translate(-1 -1)"/><path class="cls-10" d="M300.6,57H257.4a1.8,1.8,0,1,1,0-3.6h43.2a1.8,1.8,0,1,1,0,3.6Z" transform="translate(-1 -1)"/><path class="cls-10" d="M291,67.81H267a1.8,1.8,0,0,1,0-3.6h24a1.8,1.8,0,1,1,0,3.6Z" transform="translate(-1 -1)"/><path class="cls-1" d="M315,72.3c-17.89,0-31.18,10-32.76,24.07l-13.76,8.38,15.26,3.38c4.2,10.81,16.07,18,31.26,18,19.07,0,32.92-11.32,32.92-26.92S334.07,72.3,315,72.3Z" transform="translate(-1 -1)"/><circle class="cls-10" cx="304.84" cy="91.45" r="3.44"/><circle class="cls-10" cx="323.16" cy="91.45" r="3.44"/><path class="cls-10" d="M315,111.81a15.77,15.77,0,0,1-11.59-5.36,2.4,2.4,0,0,1,3.53-3.25,10.44,10.44,0,0,0,16.12,0,2.4,2.4,0,0,1,3.53,3.25A15.77,15.77,0,0,1,315,111.81Z" transform="translate(-1 -1)"/><polygon class="cls-3" points="205.8 27.45 190.51 23.28 185.91 29.13 205.8 27.45"/><polygon class="cls-3" points="137.69 39.62 151.25 39.27 159.93 47.26 137.69 39.62"/><polygon class="cls-3" points="196.33 57.13 213.35 69.64 187.68 60.33 196.33 57.13"/><polygon class="cls-3" points="93.24 117.57 113.85 113.17 126.35 121.17 110.67 118.26 93.24 117.57"/><polygon class="cls-3" points="79.75 362.73 60.98 352.3 56.81 339.27 82.87 335.1 111.02 350.22 127.35 386.18 120.4 404.95 79.75 362.73"/><polygon class="cls-3" points="138.82 362.55 161.75 332.67 188.16 320.85 216.66 327.8 225 343.09 182.6 349.35 142.99 369.5 134.65 371.59 138.82 362.55 138.82 362.55"/><path class="cls-3" d="M206,539l-9.33-18-25.33.67L150,544.33l-2.54-6.7.54,0s29.33-52.67,32-53.33-6.67-20-6.67-20l-20-2-20,24.33-1.83,39.22L91.35,514.33,70,517l-4.67,23.33L92,559.67l13,6.13,49,26.54,4,4L183.35,571l26-6.67Z" transform="translate(-1 -1)"/><polygon class="cls-3" points="116.93 452.56 84.26 441.44 67.58 448.04 99.55 458.12 123.88 474.1 116.93 452.56"/><polygon class="cls-3" points="115.54 442.83 149.59 441.44 120.75 452.56 115.54 442.83"/><polygon class="cls-5" points="122.14 411.55 118.32 418.5 92.6 407.38 59.24 400.43 38.39 385.49 44.3 379.23 33.53 378.54 27.62 364.64 55.77 357.34 83.92 362.55 105.81 383.75 122.14 411.55"/><polygon class="cls-3" points="108.24 393.83 86.35 376.8 70.02 374.02 84.61 380.97 103.03 399.39 108.24 393.83"/><polygon class="cls-12" points="103.03 377.84 102.68 392.09 111.72 392.79 115.19 373.67 103.03 377.84"/><polygon class="cls-3" points="103.03 399.39 121.79 401.47 124.57 413.64 103.03 399.39"/><polygon class="cls-17" points="102.68 392.09 103.03 399.39 123.53 406.34 124.22 403.21 120.4 396.96 111.72 392.79 102.68 392.09"/><polygon class="cls-12" points="161.06 342.75 158.97 356.3 169.01 354 172.53 337.19 161.06 342.75"/><polygon class="cls-18" points="175.31 299.31 146.12 291.49 130.02 293.57 108.94 292.71 103.72 306.61 107.2 342.05 101.98 351.43 101.35 387 117.35 389 127.27 345.87 134.26 316.52 156.01 319.33 155.35 328.33 157.93 347.61 173.35 347.67 180.87 308 175.31 299.31"/><path class="cls-19" d="M196.11,246.79l-27.1,8-14.59-17.72-8.34-4.52s-26.41,2.43-25,1.74l-9,2.78-28.84,27.1,26.76,29.54L136,298.92l15.64-5.56,2.71-28,7,5.67,9.33,1L198,256.87Z" transform="translate(-1 -1)"/><polygon class="cls-12" points="118.22 205.47 136.74 202.01 139.51 208.61 145.07 214.52 142.29 225.64 136.82 232.07 119.09 229.11 118.22 205.47"/><circle class="cls-17" cx="130.48" cy="210.35" r="2.27"/><polygon class="cls-20" points="122.83 227.72 136.04 230.85 142.29 225.64 145.07 231.55 142.99 238.15 136.39 233.63 131.87 239.89 120.06 233.28 122.83 227.72"/><polygon class="cls-21" points="107.2 263.17 94.34 264.21 101.98 269.08 107.2 263.17"/><rect class="cls-16" x="95.97" y="258.63" width="45.07" height="32.48" transform="translate(-176.52 217.76) rotate(-55.87)"/><polygon class="cls-12" points="120.06 270.81 129.09 272.55 135 277.42 134.65 282.28 128.05 287.15 120.06 281.24 110.33 278.81 120.06 270.81"/><polygon class="cls-19" points="82.18 263.17 83.22 274.29 90.86 279.5 118.67 283.32 123.53 271.16 96.42 263.87 82.18 263.17"/><path class="cls-5" d="M216.06,313.53l5.78,6.51,8.91-7.54-3.35-6.18,7-2.08-.89-3-7.66,2.27-2.77-5.11-10.67-4.74-5.52,3.84-5.43-4.29-11.61,3.14,12-16.9-3.6-9.45-55.17,77.51L124.39,385.8l-7.06,32.11,8.15,1.79,6.84-31.13,4.66-9.49c6.05-1.3,17.37-3.71,18.13-3.71,1,0,34.05,13.9,34.05,13.9l35.1,3.82,5.56-9.73L216.27,366,193,359.73l-34.05,2.43s-10.36,4.24-17.26,7.33l8.69-17.7L187,300.36l13.77-3.72,3.45,2.72-1.35.94-4.22,7.4,7.56,7.56L213,302.32l-3.55-2.8,3.29-2.29,8.09,3.6,1.95,3.59-4.13,1.23ZM205.45,310l-2.87-2.87,2.69-4.71,1.55-1.08,2.25,1.78Zm15.69-1.86,3.21-.95,2.45,4.52-4.64,3.93-2.56-2.87Z" transform="translate(-1 -1)"/><polygon class="cls-3" points="180.87 361.86 195.81 366.03 208.32 377.5 192.34 369.85 180.52 363.94 170.09 359.77 180.87 361.86"/><path class="cls-5" d="M239.35,546.33,208,525.67l-28.67,8.67-20,26.65-.82-6.18-10-30.51L168.68,507l26,6,24.67-4.67L218.68,491l-30-13.33-26,9-18,25.9-21.17-64.36c7.65-1.83,25.49-6,27.13-5.77,2.09.35,19.46,10.42,19.46,10.42l34.05,5.56,8-18.76-11.47-16.33L169,411.51l-32,8-14,16.56,3.12-19.2-10.29-1.67-4.72,29.06,2.5,7.6L77.27,434.1,47.39,431,26.54,446.26l5.21,13.9,32.66-1.39,27.45-9.38,22.35,4.06,17.58,53.44-29.12-20.22L64,483,35.35,501.67l-2,28,26,7.33,35.33-16.67,44.47,8.89,9.07,27.58L102,537.67l-43.33,14-6,25.33,32.67,6.67L120,569l30.91,7.58,3,22.6,10.33-1.38-3-22.64,24.1-14.83L218,575.67,246,569Z" transform="translate(-1 -1)"/><polygon class="cls-17" points="157.93 361.16 158.63 354.56 169.05 353.52 180.17 358.73 181.22 364.29 157.93 361.16"/><polygon class="cls-3" points="154.11 374.37 136.39 373.33 133.61 380.97 154.11 374.37"/><polygon class="cls-3" points="136.04 418.5 159.32 420.59 184.69 435.53 165.93 419.54 150.98 414.68 136.04 418.5"/><polygon class="cls-3" points="51.25 443.87 66.19 432.4 76.27 433.1 51.25 443.87"/><polygon class="cls-22" points="124.22 204.09 121.44 202.36 115.01 204.33 115.35 200 108.35 205 104.01 214.67 107.68 219.67 106.01 224 110.68 228.67 118.01 231.33 128.05 228.77 123.01 218 124.22 204.09"/><polygon class="cls-3" points="68.35 504 91.68 497.33 120.35 507 93.68 504.67 68.35 504"/><polygon class="cls-3" points="178.35 533.33 219.68 551.33 186.35 530.67 178.35 533.33"/><polygon class="cls-22" points="119.68 216 134.01 220.33 141.68 209.67 148.01 214 149.01 220 142.29 225.64 136.04 230.85 121.68 228.67 119.68 216"/><polygon class="cls-12" points="122.68 220.33 122.35 224 126.01 224.33 130.68 222.33 122.68 220.33"/><path class="cls-1" d="M97.27,204.89,89.11,192A21.37,21.37,0,0,0,91,183.21c0-16-17.75-29-45-29s-45,13-45,29,17.75,29,45,29c14.88,0,26.91-3.87,34.78-10Z" transform="translate(-1 -1)"/><polygon class="cls-20" points="57 173.81 59.97 179.34 66.6 180.23 61.8 184.54 62.93 190.62 57 187.75 54.01 182.67 57 173.81"/><polygon class="cls-10" points="33 173.81 35.97 179.34 42.6 180.23 37.8 184.54 38.93 190.62 33 187.75 27.07 190.62 28.2 184.54 23.4 180.23 30.03 179.34 33 173.81"/><polyline class="cls-10" points="57 187.75 51.07 190.62 52.2 184.54 47.4 180.23 54.03 179.34 57 173.81"/><path class="cls-11" d="M255.85,230.92l5-.75,2,1.5,2.77-4.25-10-2.35S254.85,231.42,255.85,230.92Z" transform="translate(-1 -1)"/></svg>